# xmcd
#
# Track frame offsets: 
#        150
#        12839
#        29436
#        39028
#        53472
#        62880
#        77107
#        89743
#        105802
#        117589
#        131519
#        143717
#        158711
#
# Disc length: 2358 seconds
#
# Revision: 0
# Processed by: cddbd v1.5.2PL0 Copyright (c) Steve Scherf et al.
# Submitted via: ExactAudioCopyFreeDBPlugin 1.0
#
DISCID=9d09340d
DTITLE=The Gift Machine - "hard facts are still uncertain"
DYEAR=1900
DGENRE=
TTITLE0=Dark Waters
TTITLE1=Telemetric Mayhem
TTITLE2=Who Am I To Say
TTITLE3=Sweetest Fruit
TTITLE4=Mystery in my Mind
TTITLE5=Out the Door
TTITLE6=Pillar of Salt
TTITLE7=Something I have to Do
TTITLE8=We Will Go Through This
TTITLE9=Don't Mind Me
TTITLE10=Muddy Water
TTITLE11=Power Lines
TTITLE12=Let's Get This Thing in Motion
EXTD=
EXTT0=
EXTT1=
EXTT2=
EXTT3=
EXTT4=
EXTT5=
EXTT6=
EXTT7=
EXTT8=
EXTT9=
EXTT10=
EXTT11=
EXTT12=
PLAYORDER=
